<svg xmlns="http://www.w3.org/2000/svg" viewBox="0 0 512.026 512.026"><path d="M512 55.48c.611-13.462-9.755-24.895-23.212-25.6H91.479c-13.457.705-23.824 12.138-23.212 25.6v110.933H25.6c-14.132.015-25.585 11.468-25.6 25.6v264.533c.015 14.132 11.468 25.585 25.6 25.6h153.6c14.132-.015 25.585-11.468 25.6-25.6v-25.6h196.267c4.713 0 8.533-3.82 8.533-8.533s-3.82-8.533-8.533-8.533H358.4v-17.067h130.388c13.457-.705 23.824-12.138 23.212-25.6V55.48zM187.733 456.546a8.544 8.544 0 0 1-8.533 8.533H25.6a8.544 8.544 0 0 1-8.533-8.533v-230.4h170.667v230.4zm0-247.466H17.067v-17.067a8.544 8.544 0 0 1 8.533-8.533h153.6a8.544 8.544 0 0 1 8.533 8.533v17.067zm10.409-34.134a25.444 25.444 0 0 0-18.942-8.533H128V132.28h281.6v145.067H230.4v-25.6a8.533 8.533 0 0 0-8.533-8.533H204.8v-17.067h17.067a8.533 8.533 0 0 0 8.533-8.533V183.48a8.533 8.533 0 0 0-8.533-8.533h-23.725zM128 115.213V81.08h324.267v34.133H128zm324.267 17.067v145.067h-25.6V132.28h25.6zm-238.934 128v17.067H204.8V260.28h8.533zm-8.533-51.2v-17.067h8.533v17.067H204.8zm17.067 204.8H204.8v-17.067h17.067v17.067zm119.466 0h-102.4v-17.067h102.4v17.067zm153.6-42.667c0 4.546-2.871 8.533-6.146 8.533H204.8v-51.2h290.133v42.667zm0-59.733H204.8v-17.067h256a8.533 8.533 0 0 0 8.533-8.533V81.08c-.009-9.422-7.645-17.057-17.067-17.067H128c-9.422.009-17.057 7.645-17.067 17.067v85.333h-25.6V55.48c0-4.546 2.871-8.533 6.146-8.533h397.308c3.275 0 6.146 3.987 6.146 8.533v256z"/><path d="M307.2 149.346a8.533 8.533 0 0 0-8.533-8.533H153.6a8.533 8.533 0 0 0 0 17.066h145.067a8.532 8.532 0 0 0 8.533-8.533zm-59.733 34.134a8.533 8.533 0 0 0 8.533 8.533h76.8a8.533 8.533 0 0 0 0-17.066H256a8.532 8.532 0 0 0-8.533 8.533zm0 34.133a8.533 8.533 0 0 0 8.533 8.533h119.467c4.713 0 8.533-3.82 8.533-8.533s-3.82-8.533-8.533-8.533H256a8.533 8.533 0 0 0-8.533 8.533zm85.333 25.6H256c-4.713 0-8.533 3.82-8.533 8.533s3.82 8.533 8.533 8.533h76.8c4.713 0 8.533-3.82 8.533-8.533s-3.82-8.533-8.533-8.533zM98.133 456.546c11.782 0 21.333-9.551 21.333-21.333-.014-11.776-9.557-21.32-21.333-21.333-11.782 0-21.333 9.551-21.333 21.333s9.551 21.333 21.333 21.333zm0-25.6a4.267 4.267 0 1 1 0 8.534 4.267 4.267 0 0 1 0-8.534zM42.667 260.28h17.067c4.713 0 8.533-3.82 8.533-8.533s-3.82-8.533-8.533-8.533H42.667c-4.713 0-8.533 3.82-8.533 8.533s3.82 8.533 8.533 8.533zm51.2 0h68.267c4.713 0 8.533-3.82 8.533-8.533s-3.82-8.533-8.533-8.533H93.867c-4.713 0-8.533 3.82-8.533 8.533s3.82 8.533 8.533 8.533zm-51.2 34.133h17.067a8.533 8.533 0 0 0 0-17.066H42.667a8.533 8.533 0 0 0 0 17.066zm51.2 0h68.267a8.533 8.533 0 0 0 0-17.066H93.867a8.533 8.533 0 0 0 0 17.066zm-51.2 34.133h17.067c4.713 0 8.533-3.82 8.533-8.533s-3.82-8.533-8.533-8.533H42.667c-4.713 0-8.533 3.82-8.533 8.533s3.82 8.533 8.533 8.533zm51.2 0h68.267c4.713 0 8.533-3.82 8.533-8.533s-3.82-8.533-8.533-8.533H93.867c-4.713 0-8.533 3.82-8.533 8.533s3.82 8.533 8.533 8.533zm-51.2 34.134h17.067c4.713 0 8.533-3.82 8.533-8.533s-3.82-8.533-8.533-8.533H42.667a8.533 8.533 0 0 0 0 17.066zm51.2 0h68.267c4.713 0 8.533-3.82 8.533-8.533s-3.82-8.533-8.533-8.533H93.867a8.533 8.533 0 0 0 0 17.066zm-51.2 34.133h17.067c4.713 0 8.533-3.82 8.533-8.533s-3.82-8.533-8.533-8.533H42.667c-4.713 0-8.533 3.82-8.533 8.533s3.82 8.533 8.533 8.533zm51.2 0h68.267c4.713 0 8.533-3.82 8.533-8.533s-3.82-8.533-8.533-8.533H93.867c-4.713 0-8.533 3.82-8.533 8.533s3.82 8.533 8.533 8.533z"/></svg>