<svg xmlns="http://www.w3.org/2000/svg" viewBox="0 0 512 512"><path d="M469.333 76.8h-56.317l8.119-11.649a33.806 33.806 0 0 0 14.065 3.116c18.851 0 34.133-15.282 34.133-34.133S454.051 0 435.2 0s-34.133 15.282-34.133 34.133a33.811 33.811 0 0 0 6.79 20.226L392.217 76.8H42.667C19.114 76.828.028 95.914 0 119.467v281.6c.028 23.553 19.114 42.639 42.667 42.667H179.2V460.8h-59.733a8.53 8.53 0 0 0-8.534 8.534v34.133a8.53 8.53 0 0 0 8.534 8.534h273.067a8.53 8.53 0 0 0 8.534-8.534v-34.133a8.53 8.53 0 0 0-8.534-8.534H332.8v-17.067h136.533c23.553-.028 42.639-19.114 42.667-42.667v-281.6c-.028-23.552-19.114-42.638-42.667-42.666zM435.2 17.067c9.426 0 17.067 7.641 17.067 17.067S444.626 51.2 435.2 51.2s-17.067-7.641-17.067-17.067c.011-9.421 7.646-17.056 17.067-17.066zm-70.509 188.238l61.976-85.201v204.162H307.2V289.54a67.416 67.416 0 0 0 57.491-84.235zM384 477.867v17.067H128v-17.067h256zM196.267 460.8v-17.067h119.467V460.8H196.267zm298.666-59.733c-.015 14.132-11.468 25.585-25.6 25.6H42.667c-14.132-.015-25.585-11.468-25.6-25.6v-25.6h477.867v25.6zm0-42.667H17.067V119.467c.015-14.132 11.468-25.585 25.6-25.6h337.655l-67.591 96.982a33.412 33.412 0 0 0-36.241 5.284l-56.828-39.341a33.767 33.767 0 0 0 2.204-11.726c0-18.851-15.282-34.133-34.133-34.133S153.6 126.215 153.6 145.067c.033 4.008.78 7.979 2.204 11.726l-56.828 39.341c-13.196-11.421-32.83-11.232-45.803.443-12.972 11.674-15.224 31.18-5.252 45.503 9.972 14.323 29.047 18.98 44.497 10.865 15.451-8.115 22.442-26.463 16.31-42.803l56.828-39.341c12.663 11.199 31.689 11.199 44.352 0l56.828 39.341a33.767 33.767 0 0 0-2.204 11.726c0 18.851 15.282 34.133 34.133 34.133s34.133-15.282 34.133-34.133a33.811 33.811 0 0 0-6.79-20.226L401.12 93.868h23.525L348.6 198.412a8.376 8.376 0 0 0-1.075 7.6l-.142.046c8.604 26.436-5.472 54.905-31.703 64.117s-55.017-4.206-64.83-30.217a7.908 7.908 0 0 0-.427-.763 8.421 8.421 0 0 0-.434-.777 8.352 8.352 0 0 0-.868-1.165c-.179-.197-.381-.364-.577-.544a8.449 8.449 0 0 0-1.143-.933l-.058-.047-54.75-37.942a8.53 8.53 0 0 0-9.717-.004l-55.125 38.146a8.315 8.315 0 0 0-2.99 4.083l-.144-.054c-7.524 19.89-26.552 33.064-47.817 33.108a8.53 8.53 0 0 0-8.534 8.534v51.2a8.53 8.53 0 0 0 8.534 8.534h358.4a8.53 8.53 0 0 0 8.534-8.534V93.867h25.6c14.132.015 25.585 11.468 25.6 25.6V358.4zm-179.2-136.533c0 9.426-7.641 17.067-17.067 17.067s-17.067-7.641-17.067-17.067c.011-9.421 7.645-17.056 17.067-17.067 9.426 0 17.067 7.641 17.067 17.067zm-110.933-76.8c0 9.426-7.641 17.067-17.067 17.067-9.421-.011-17.056-7.646-17.067-17.067 0-9.426 7.641-17.067 17.067-17.067s17.067 7.641 17.067 17.067zm-110.933 76.8c0 9.426-7.641 17.067-17.067 17.067s-17.067-7.641-17.067-17.067S67.374 204.8 76.8 204.8c9.421.011 17.056 7.645 17.067 17.067zm196.266 67.601v34.798h-93.867V221.093l39.913 27.661a68.233 68.233 0 0 0 53.954 40.714zM179.2 221.084v103.183H85.333v-34.798a68.237 68.237 0 0 0 53.99-40.79l39.877-27.595z"/></svg>