<?xml version="1.0" standalone="no"?>
<!DOCTYPE svg PUBLIC "-//W3C//DTD SVG 20010904//EN"
 "http://www.w3.org/TR/2001/REC-SVG-20010904/DTD/svg10.dtd">
 
<svg version="1.0" xmlns="http://www.w3.org/2000/svg"
 width="700.000000pt" height="700.000000pt" viewBox="0 0 700.000000 700.000000"
 preserveAspectRatio="xMidYMid meet">
  <defs>
    <style type="text/css"><![CDATA[


      @keyframes grow {
      	0% {
      		transform: scaleY(0) rotate(3deg);
      		

      	}

      	30% {
      		transform: scaleY(1.0) rotate(10deg);
    
      	}

      	60% {
      		transform: scaleY(0.9) rotate(5deg);
      		
      	}

      	70% {
      		transform: scaleY(0.9) rotate(-5deg);
      	}

      	80% {
      		transform: scaleY(1.0) rotate(-10deg);
      	}
      }



      .svg--center-b, .svg--outer-circle {
            -webkit-animation: grow 1.3s ease-out backwards;
        	animation: grow 1.3s ease-out backwards;


      }

      .svg--out-circle {
      		-webkit-animation-delay: .2s;
      		animation-delay: .2s;
      }

      .svg--center-b {
      		-webkit-animation-delay: .25s;
      		animation-delay: .25s;
      }

    ]]></style>
  </defs>

<g transform="translate(0.000000, 700.000000) scale(0.100000,-0.100000)" fill="#df861d" stroke="none" class="logo-bree">
	<g>
		<g class="svg--outer-circle">
		<path d="M3345 6469 c-1084 -49 -2067 -695 -2550 -1674 -156 -317 -252 -636
		-296 -990 -20 -152 -17 -572 4 -725 70 -505 227 -915 508 -1331 287 -424 696
		-776 1164 -1004 414 -201 786 -291 1251 -302 523 -13 950 81 1412 308 697 344
		1231 941 1500 1675 71 194 128 430 159 663 23 175 23 567 -1 746 -89 666 -375
		1258 -840 1733 -608 622 -1426 941 -2311 901z m555 -294 c326 -51 668 -167
		935 -317 1016 -572 1562 -1702 1375 -2848 -176 -1075 -988 -1956 -2045 -2219
		-756 -188 -1544 -50 -2190 384 -872 586 -1332 1597 -1199 2634 157 1219 1116
		2191 2334 2365 162 24 169 24 435 21 169 -2 284 -9 355 -20z"/>
		</g>
		<g class="svg--center-b">
		<path d="M2507 5029 c-20 -3 -43 -12 -52 -19 -47 -39 -45 29 -45 -1595 0
		-1028 3 -1533 10 -1546 6 -10 25 -27 43 -36 29 -17 76 -18 582 -18 646 1 740
		9 985 87 216 69 399 185 515 325 190 230 231 564 101 822 -83 165 -281 315
		-509 387 -51 16 -75 34 -46 34 6 0 44 15 85 34 329 152 483 414 453 767 -16
		191 -79 330 -209 459 -122 122 -254 193 -452 244 -193 50 -280 56 -874 58
		-303 2 -567 0 -587 -3z m113 -109 c0 -11 -4 -20 -10 -20 -5 0 -10 2 -10 4 0 2
		-3 11 -6 20 -4 11 -1 16 10 16 9 0 16 -8 16 -20z m228 2 c2 -7 -3 -12 -12 -12
		-9 0 -16 7 -16 16 0 17 22 14 28 -4z m342 -2 c0 -5 -2 -10 -4 -10 -3 0 -8 5
		-11 10 -3 6 -1 10 4 10 6 0 11 -4 11 -10z m294 -21 c-10 -16 -24 -9 -24 12 0
		18 2 19 15 9 8 -7 12 -16 9 -21z m216 21 c0 -5 -5 -10 -10 -10 -6 0 -15 -11
		-21 -24 -7 -14 -17 -22 -25 -19 -20 7 -17 40 4 52 22 13 52 14 52 1z m54 -21
		c-10 -16 -24 -9 -24 12 0 18 2 19 15 9 8 -7 12 -16 9 -21z m-1087 6 c9 -25 -4
		-29 -17 -6 -7 15 -7 21 0 21 6 0 13 -7 17 -15z m233 -4 c0 -5 9 -13 20 -16 11
		-4 27 -20 35 -36 15 -28 15 -29 -10 -29 -15 0 -31 -9 -41 -25 -19 -28 -36 -32
		-54 -10 -9 10 -9 15 -1 15 6 0 11 8 11 18 0 9 7 29 14 45 8 15 11 27 5 27 -5
		0 -9 5 -9 10 0 6 7 10 15 10 8 0 15 -4 15 -9z m235 -1 c3 -5 1 -10 -4 -10 -6
		0 -11 5 -11 10 0 6 2 10 4 10 3 0 8 -4 11 -10z m115 0 c0 -5 -5 -10 -11 -10
		-5 0 -7 5 -4 10 3 6 8 10 11 10 2 0 4 -4 4 -10z m180 6 c0 -3 -4 -8 -10 -11
		-5 -3 -10 -1 -10 4 0 6 5 11 10 11 6 0 10 -2 10 -4z m-860 -21 c0 -8 0 -18 1
		-22 0 -4 -4 -9 -9 -11 -12 -4 -24 26 -16 39 8 14 24 11 24 -6z m643 -7 c4 -12
		4 -24 1 -27 -8 -9 -37 27 -30 38 11 17 23 13 29 -11z m95 -9 c2 -23 2 -23 -13
		-5 -18 24 -20 39 -2 34 6 -3 13 -15 15 -29z m497 21 c-3 -5 -11 -10 -16 -10
		-6 0 -7 5 -4 10 3 6 11 10 16 10 6 0 7 -4 4 -10z m-225 -10 c0 -5 -4 -10 -10
		-10 -5 0 -10 5 -10 10 0 6 5 10 10 10 6 0 10 -4 10 -10z m365 -7 c42 6 45 5
		43 -17 -1 -14 -7 -22 -14 -19 -20 7 -26 -16 -10 -33 19 -18 20 -26 6 -40 -8
		-8 -6 -15 5 -24 26 -22 17 -33 -22 -25 -31 5 -36 4 -25 -6 17 -18 15 -39 -5
		-55 -28 -21 -36 -17 -31 15 3 22 0 31 -14 34 -30 8 -22 30 9 24 l27 -5 -23 18
		c-29 21 -14 34 29 25 19 -4 30 -3 30 4 0 11 -27 16 -64 12 -18 -1 -18 0 -3 17
		9 10 17 27 17 38 0 18 -1 18 -18 -2 -29 -36 -94 -74 -117 -68 -13 3 -28 -2
		-39 -15 -24 -26 -52 -27 -68 -2 -6 10 -18 17 -25 14 -7 -3 -13 0 -13 6 0 6 -8
		11 -17 11 -10 0 -25 5 -33 10 -13 9 -12 13 7 29 19 16 20 20 7 25 -19 7 -9 26
		14 26 10 0 35 -9 55 -19 l38 -19 9 24 c11 27 19 29 44 11 17 -12 17 -14 2 -20
		-9 -4 -16 -12 -16 -18 0 -8 6 -7 18 3 27 24 63 32 73 17 7 -11 14 -8 31 13 17
		20 26 24 36 16 7 -6 31 -8 57 -5z m-1085 -3 c0 -5 -4 -10 -10 -10 -5 0 -10 5
		-10 10 0 6 5 10 10 10 6 0 10 -4 10 -10z m-230 -10 c0 -5 -5 -10 -11 -10 -5 0
		-7 5 -4 10 3 6 8 10 11 10 2 0 4 -4 4 -10z m140 0 c0 -5 -4 -10 -10 -10 -5 0
		-10 5 -10 10 0 6 5 10 10 10 6 0 10 -4 10 -10z m755 1 c7 -12 -43 -51 -66 -51
		-13 0 -19 7 -19 24 0 24 5 27 67 35 6 0 14 -3 18 -8z m-705 -11 c0 -5 -4 -10
		-9 -10 -6 0 -13 5 -16 10 -3 6 1 10 9 10 9 0 16 -4 16 -10z m240 0 c0 -5 -2
		-10 -4 -10 -3 0 -8 5 -11 10 -3 6 -1 10 4 10 6 0 11 -4 11 -10z m370 6 c0 -3
		-4 -8 -10 -11 -5 -3 -10 -1 -10 4 0 6 5 11 10 11 6 0 10 -2 10 -4z m-430 -26
		c0 -11 -4 -20 -9 -20 -11 0 -22 26 -14 34 12 12 23 5 23 -14z m374 -2 c-9 -32
		-14 -35 -24 -18 -14 21 -12 28 8 33 9 3 18 5 20 6 2 0 0 -9 -4 -21z m-704 -3
		c0 -8 -4 -15 -10 -15 -5 0 -10 7 -10 15 0 8 5 15 10 15 6 0 10 -7 10 -15z
		m436 1 c10 -8 15 -18 11 -22 -4 -4 -17 2 -29 14 -25 25 -13 30 18 8z m-511 -7
		c4 -6 5 -12 2 -15 -7 -7 -37 7 -37 17 0 13 27 11 35 -2z m1485 -4 c-14 -17
		-40 -20 -40 -6 0 8 18 16 44 20 5 0 3 -6 -4 -14z m-1135 -25 c3 -5 1 -10 -4
		-10 -6 0 -11 5 -11 10 0 6 2 10 4 10 3 0 8 -4 11 -10z m1162 -20 c-13 -34 -22
		-38 -31 -14 -4 10 1 22 11 30 28 21 32 17 20 -16z m-1307 10 c0 -5 -4 -10 -10
		-10 -5 0 -10 5 -10 10 0 6 5 10 10 10 6 0 10 -4 10 -10z m185 0 c3 -5 1 -10
		-4 -10 -6 0 -11 5 -11 10 0 6 2 10 4 10 3 0 8 -4 11 -10z m861 -17 c-10 -10
		-19 5 -10 18 6 11 8 11 12 0 2 -7 1 -15 -2 -18z m-826 7 c0 -5 -4 -10 -10 -10
		-5 0 -10 5 -10 10 0 6 5 10 10 10 6 0 10 -4 10 -10z m379 -21 c12 -27 11 -33
		-2 -46 -21 -21 -47 -9 -47 21 0 60 27 74 49 25z m161 21 c0 -5 -2 -10 -4 -10
		-3 0 -8 5 -11 10 -3 6 -1 10 4 10 6 0 11 -4 11 -10z m-910 -4 c0 -15 -14 -35
		-21 -30 -15 9 -10 34 6 34 8 0 15 -2 15 -4z m543 -2 c3 -3 3 -12 0 -20 -4 -11
		-9 -12 -19 -3 -8 6 -14 15 -14 20 0 10 24 12 33 3z m97 -4 c0 -5 -5 -10 -11
		-10 -5 0 -7 5 -4 10 3 6 8 10 11 10 2 0 4 -4 4 -10z m720 -11 c0 -6 -4 -7 -10
		-4 -5 3 -10 11 -10 16 0 6 5 7 10 4 6 -3 10 -11 10 -16z m150 -25 c0 -11 -29
		-28 -37 -21 -2 2 0 19 3 37 7 30 8 32 21 15 7 -11 13 -24 13 -31z m-1370 26
		c0 -5 -5 -10 -11 -10 -5 0 -7 5 -4 10 3 6 8 10 11 10 2 0 4 -4 4 -10z m290 0
		c0 -5 -4 -10 -10 -10 -5 0 -10 5 -10 10 0 6 5 10 10 10 6 0 10 -4 10 -10z
		m250 0 c0 -5 -4 -10 -10 -10 -5 0 -10 5 -10 10 0 6 5 10 10 10 6 0 10 -4 10
		-10z m-600 -21 c0 -5 -7 -9 -15 -9 -15 0 -20 12 -9 23 8 8 24 -1 24 -14z m254
		5 c4 -9 4 -19 2 -21 -8 -8 -26 8 -26 23 0 19 16 18 24 -2z m1076 -5 c0 -5 -4
		-9 -10 -9 -5 0 -10 7 -10 16 0 8 5 12 10 9 6 -3 10 -10 10 -16z m-225 1 c3 -5
		1 -10 -4 -10 -6 0 -11 5 -11 10 0 6 2 10 4 10 3 0 8 -4 11 -10z m-1245 -10 c0
		-5 -7 -10 -15 -10 -8 0 -15 5 -15 10 0 6 7 10 15 10 8 0 15 -4 15 -10z m90 0
		c0 -5 -4 -10 -10 -10 -5 0 -10 5 -10 10 0 6 5 10 10 10 6 0 10 -4 10 -10z
		m1336 -17 c-10 -10 -19 5 -10 18 6 11 8 11 12 0 2 -7 1 -15 -2 -18z m249 -20
		c9 -13 15 -26 13 -27 -6 -4 -124 -26 -141 -26 -23 0 -21 20 7 54 17 21 29 26
		44 22 11 -4 23 -2 26 3 9 15 32 3 51 -26z m-575 17 c0 -5 -4 -10 -10 -10 -5 0
		-10 5 -10 10 0 6 5 10 10 10 6 0 10 -4 10 -10z m110 -5 c0 -8 -4 -15 -10 -15
		-5 0 -10 7 -10 15 0 8 5 15 10 15 6 0 10 -7 10 -15z m310 1 c0 -27 -78 -62
		-81 -36 -5 30 -1 35 26 41 48 10 55 10 55 -5z m-1170 0 c0 -11 -19 -15 -25 -6
		-3 5 1 10 9 10 9 0 16 -2 16 -4z m790 -6 c0 -5 -2 -10 -4 -10 -3 0 -8 5 -11
		10 -3 6 -1 10 4 10 6 0 11 -4 11 -10z m127 -16 c-3 -4 -14 -3 -24 0 -15 6 -15
		8 -3 16 16 10 39 -4 27 -16z m-1277 -10 c0 -8 -4 -12 -10 -9 -5 3 -10 10 -10
		16 0 5 5 9 10 9 6 0 10 -7 10 -16z m100 -14 c0 -5 -5 -10 -11 -10 -5 0 -7 5
		-4 10 3 6 8 10 11 10 2 0 4 -4 4 -10z m1338 -12 c16 -16 15 -28 -3 -28 -8 0
		-15 5 -15 10 0 6 -7 10 -15 10 -8 0 -15 5 -15 10 0 14 33 13 48 -2z m112 -45
		c0 -23 -14 -31 -25 -14 -3 5 -19 12 -35 16 -36 8 -38 17 -8 37 20 14 25 14 45
		-1 12 -9 23 -26 23 -38z m-1490 32 c0 -8 -4 -15 -10 -15 -5 0 -10 7 -10 15 0
		8 5 15 10 15 6 0 10 -7 10 -15z m1662 -31 c16 -35 16 -37 -3 -57 -11 -12 -17
		-28 -14 -36 3 -8 -6 -26 -19 -40 -17 -18 -22 -31 -16 -40 7 -12 11 -12 23 -2
		12 10 19 6 37 -19 12 -17 24 -29 27 -26 3 3 -5 19 -17 36 -12 17 -21 33 -19
		35 2 2 19 0 36 -3 24 -5 40 -19 63 -55 34 -54 35 -57 18 -57 -7 0 -29 -12 -49
		-26 -24 -16 -47 -24 -66 -22 -35 4 -37 28 -4 45 l25 12 -28 12 c-33 15 -46 2
		-46 -48 0 -36 -21 -44 -54 -20 -23 17 -16 41 24 85 l31 32 -29 0 c-16 0 -35
		-7 -42 -15 -7 -8 -19 -15 -26 -15 -21 0 -17 28 6 47 11 10 20 25 20 34 0 11
		15 20 47 28 34 9 43 15 33 21 -12 7 -11 12 4 29 10 11 16 27 12 36 -7 19 -26
		11 -26 -11 0 -8 -4 -14 -10 -14 -5 0 -6 8 -3 18 6 15 5 15 -11 3 -14 -12 -19
		-12 -26 -2 -4 8 -14 11 -21 9 -8 -3 -20 2 -27 9 -11 11 -11 17 -2 28 17 21 44
		19 64 -4 15 -16 21 -18 37 -8 10 6 19 17 19 24 0 24 16 13 32 -23z m-1582 10
		c0 -11 -21 -44 -29 -44 -6 0 -7 31 -2 48 2 5 31 2 31 -4z m1640 -24 c9 -6 11
		-10 3 -10 -7 0 -10 -7 -7 -15 10 -26 -12 -16 -24 10 -13 27 -1 34 28 15z
		m-1679 -47 c34 -20 37 -33 10 -33 -11 0 -23 -4 -26 -10 -13 -21 -25 -9 -25 25
		0 40 2 41 41 18z m1489 -23 c-8 -5 -19 -9 -25 -9 -5 0 -4 3 3 6 6 2 12 12 12
		21 0 13 3 13 12 4 10 -10 10 -15 -2 -22z m57 4 c-3 -4 -14 -3 -24 0 -15 6 -15
		8 -3 16 16 10 39 -4 27 -16z m143 6 c17 27 21 2 5 -29 -17 -34 -31 -33 -45 3
		-10 28 -2 40 17 25 12 -10 16 -10 23 1z m-657 -28 c231 -63 349 -208 334 -408
		-13 -169 -130 -318 -305 -389 -118 -48 -207 -59 -474 -60 l-246 0 -26 24 -26
		24 0 387 c0 416 0 418 54 441 12 5 150 7 316 5 262 -3 304 -6 373 -24z m-1143
		8 c0 -5 -4 -10 -10 -10 -5 0 -10 5 -10 10 0 6 5 10 10 10 6 0 10 -4 10 -10z
		m235 -10 c3 -5 1 -10 -4 -10 -6 0 -11 5 -11 10 0 6 2 10 4 10 3 0 8 -4 11 -10z
		m1625 6 c0 -3 -4 -8 -10 -11 -5 -3 -10 -1 -10 4 0 6 5 11 10 11 6 0 10 -2 10
		-4z m-1712 -42 c-10 -10 -28 6 -28 24 0 15 1 15 17 -1 9 -9 14 -19 11 -23z
		m1682 6 c0 -11 -4 -20 -10 -20 -5 0 -10 9 -10 20 0 11 5 20 10 20 6 0 10 -9
		10 -20z m-1830 -10 c0 -5 -5 -10 -11 -10 -5 0 -7 5 -4 10 3 6 8 10 11 10 2 0
		4 -4 4 -10z m94 -22 c8 -12 13 -25 10 -30 -7 -11 -44 25 -44 42 0 17 18 11 34
		-12z m1766 -8 c0 -5 -5 -10 -11 -10 -5 0 -7 5 -4 10 3 6 8 10 11 10 2 0 4 -4
		4 -10z m-1820 -41 c0 -9 -49 1 -56 12 -3 5 2 9 10 9 9 0 16 6 16 13 1 12 30
		-21 30 -34z m150 -19 c0 -5 -4 -10 -10 -10 -5 0 -10 5 -10 10 0 6 5 10 10 10
		6 0 10 -4 10 -10z m-170 -20 c0 -5 -2 -10 -4 -10 -3 0 -8 5 -11 10 -3 6 -1 10
		4 10 6 0 11 -4 11 -10z m211 -99 c-9 -6 -10 -11 -2 -15 21 -14 11 -26 -16 -20
		-41 10 -44 16 -37 63 l7 43 31 -31 c24 -25 28 -33 17 -40z m-210 26 c-13 -13
		-26 -3 -16 12 3 6 11 8 17 5 6 -4 6 -10 -1 -17z m1884 3 c3 -5 -1 -10 -9 -10
		-9 0 -16 5 -16 10 0 6 4 10 9 10 6 0 13 -4 16 -10z m-105 -9 c0 -5 -6 -14 -14
		-20 -7 -6 -11 -22 -8 -36 5 -27 -6 -33 -26 -13 -8 8 -15 8 -27 -2 -22 -19 -29
		-6 -13 26 17 37 88 73 88 45z m-1660 -33 c0 -7 3 -23 6 -35 7 -24 -2 -29 -25
		-14 -9 6 -11 18 -7 35 6 26 26 36 26 14z m-130 -7 c0 -5 7 -11 16 -13 13 -2
		13 -6 2 -21 -12 -16 -14 -15 -25 13 -6 16 -7 30 -2 30 5 0 9 -4 9 -9z m1895
		-20 c3 -5 1 -12 -4 -15 -12 -8 -41 3 -41 15 0 12 37 12 45 0z m-67 -55 c11
		-26 0 -46 -26 -46 -10 0 -12 6 -7 18 4 9 7 25 7 35 -1 25 13 21 26 -7z m-1668
		4 c0 -5 -4 -10 -10 -10 -5 0 -10 5 -10 10 0 6 5 10 10 10 6 0 10 -4 10 -10z
		m80 0 c0 -5 -5 -10 -10 -10 -15 0 -60 -50 -60 -66 0 -8 -5 -14 -11 -14 -6 0
		-9 7 -5 15 3 8 1 15 -5 15 -5 0 5 16 23 35 31 33 68 47 68 25z m-120 -60 c0
		-5 -4 -10 -10 -10 -5 0 -10 5 -10 10 0 6 5 10 10 10 6 0 10 -4 10 -10z m1630
		-25 c18 -22 -8 -29 -31 -9 -10 9 -19 20 -19 25 0 11 38 -1 50 -16z m-1620 1
		c0 -3 -4 -8 -10 -11 -5 -3 -10 -1 -10 4 0 6 5 11 10 11 6 0 10 -2 10 -4z
		m1651 -38 c-1 -5 -1 -18 -1 -30 0 -26 -14 -14 -25 20 -5 19 -3 23 10 20 9 -1
		16 -6 16 -10z m54 -8 c3 -5 -1 -10 -9 -10 -9 0 -16 5 -16 10 0 6 4 10 9 10 6
		0 13 -4 16 -10z m-165 -25 c0 -8 -4 -15 -10 -15 -5 0 -10 7 -10 15 0 8 5 15
		10 15 6 0 10 -7 10 -15z m-1468 -40 c-6 -14 -16 -25 -21 -25 -13 0 -9 53 4 62
		18 13 29 -10 17 -37z m1518 18 c-1 -5 -7 -19 -14 -32 -13 -24 -14 -24 -25 -3
		-15 28 -14 33 4 26 8 -4 15 -1 15 5 0 6 5 11 10 11 6 0 10 -3 10 -7z m-1576
		-19 c11 -29 6 -33 -24 -17 -17 8 -28 19 -25 24 10 15 42 10 49 -7z m-139 -4
		c-3 -5 -1 -18 5 -29 12 -24 -1 -35 -23 -18 -17 13 -7 57 13 57 6 0 8 -4 5 -10z
		m1755 0 c0 -5 -9 -10 -21 -10 -11 0 -17 5 -14 10 3 6 13 10 21 10 8 0 14 -4
		14 -10z m40 0 c0 -5 -4 -10 -10 -10 -5 0 -10 5 -10 10 0 6 5 10 10 10 6 0 10
		-4 10 -10z m-1720 -37 c0 -12 -18 -28 -25 -21 -2 1 -7 16 -10 31 -7 27 -7 28
		14 15 11 -7 21 -18 21 -25z m1524 11 c22 -9 20 -24 -3 -24 -11 0 -21 -6 -24
		-12 -7 -21 -17 -4 -10 20 6 23 12 26 37 16z m56 2 c0 -3 -4 -8 -10 -11 -5 -3
		-10 -1 -10 4 0 6 5 11 10 11 6 0 10 -2 10 -4z m96 -39 c1 -15 -1 -27 -6 -27
		-13 0 -32 39 -25 51 11 17 28 4 31 -24z m-80 -43 c4 -17 2 -29 -7 -35 -21 -13
		-32 -11 -25 7 3 9 6 24 6 35 0 28 19 23 26 -7z m-1554 -4 c-25 -23 -42 -26
		-42 -6 0 16 15 24 44 25 19 1 19 0 -2 -19z m28 -48 c0 -13 -12 -22 -22 -16
		-10 6 -1 24 13 24 5 0 9 -4 9 -8z m-90 -23 c0 -5 -4 -9 -10 -9 -5 0 -10 7 -10
		16 0 8 5 12 10 9 6 -3 10 -10 10 -16z m-46 -25 c11 -28 6 -34 -16 -22 -13 7
		-25 14 -27 15 -1 1 0 6 4 12 9 16 32 13 39 -5z m1631 6 c3 -5 1 -10 -4 -10 -6
		0 -11 5 -11 10 0 6 2 10 4 10 3 0 8 -4 11 -10z m35 -26 c0 -8 -4 -12 -10 -9
		-5 3 -10 10 -10 16 0 5 5 9 10 9 6 0 10 -7 10 -16z m-1525 -4 c3 -5 1 -10 -4
		-10 -6 0 -11 5 -11 10 0 6 2 10 4 10 3 0 8 -4 11 -10z m-85 -20 c0 -5 -4 -10
		-10 -10 -5 0 -10 5 -10 10 0 6 5 10 10 10 6 0 10 -4 10 -10z m1480 -14 c0 -16
		-18 -31 -27 -22 -8 8 5 36 17 36 5 0 10 -6 10 -14z m-1425 -6 c6 -9 -15 -50
		-26 -50 -3 0 -6 14 -6 30 0 29 19 41 32 20z m-105 -20 c46 -24 70 -58 49 -71
		-22 -13 -29 -11 -29 11 0 25 -35 43 -67 35 -21 -5 -24 -3 -19 10 3 9 6 21 6
		26 0 14 17 11 60 -11z m1648 2 c3 -9 -3 -13 -19 -10 -12 1 -24 9 -27 16 -3 9
		3 13 19 10 12 -1 24 -9 27 -16z m-325 -77 c-3 -8 -9 -15 -14 -15 -10 0 -12 24
		-3 33 11 11 24 -3 17 -18z m158 -8 c-1 -12 -15 -9 -19 4 -3 6 1 10 8 8 6 -3
		11 -8 11 -12z m-1361 -47 c0 -5 -4 -10 -9 -10 -6 0 -13 5 -16 10 -3 6 1 10 9
		10 9 0 16 -4 16 -10z m1098 -7 c6 -19 -35 -16 -42 3 -4 11 0 15 16 12 12 -2
		23 -9 26 -15z m-1228 -17 c0 -15 -18 -31 -26 -23 -7 7 7 37 17 37 5 0 9 -6 9
		-14z m138 -13 c-2 -9 -8 -18 -15 -20 -7 -3 -9 3 -6 16 6 25 26 28 21 4z m420
		-23 c9 0 17 -18 47 -105 5 -14 -1 -11 -19 10 -14 17 -31 45 -37 63 -6 17 -15
		32 -20 32 -5 0 -9 8 -9 18 1 16 1 16 14 0 7 -10 18 -18 24 -18z m-90 1 c3 -8
		-1 -12 -9 -9 -7 2 -15 10 -17 17 -3 8 1 12 9 9 7 -2 15 -10 17 -17z m-113 -21
		c0 -7 -6 -15 -12 -17 -8 -3 -13 4 -13 17 0 13 5 20 13 18 6 -3 12 -11 12 -18z
		m665 -12 c0 -12 -13 -9 -32 6 -26 19 -22 26 7 13 14 -7 25 -15 25 -19z m-860
		2 c-6 -11 -15 -20 -19 -20 -5 0 -7 9 -4 20 3 11 12 20 20 20 11 0 11 -4 3 -20z
		m550 10 c0 -5 -4 -10 -10 -10 -5 0 -10 5 -10 10 0 6 5 10 10 10 6 0 10 -4 10
		-10z m-690 -9 c0 -5 -7 -14 -15 -21 -12 -10 -15 -10 -15 2 0 8 3 18 7 21 9 10
		23 9 23 -2z m512 -6 c0 -5 -5 -11 -11 -13 -6 -2 -11 4 -11 13 0 9 5 15 11 13
		6 -2 11 -8 11 -13z m783 5 c3 -5 2 -10 -4 -10 -5 0 -13 5 -16 10 -3 6 -2 10 4
		10 5 0 13 -4 16 -10z m-675 -25 c0 -8 -4 -17 -10 -20 -6 -4 -10 5 -10 20 0 15
		4 24 10 20 6 -3 10 -12 10 -20z m-240 -29 c-1 -21 -1 -21 -15 -2 -19 25 -19
		37 0 30 8 -4 15 -16 15 -28z m524 25 c3 -4 3 -11 0 -14 -8 -7 -44 4 -44 14 0
		12 37 12 44 0z m-864 -10 c0 -12 -20 -25 -27 -18 -7 7 6 27 18 27 5 0 9 -4 9
		-9z m300 -12 c0 -6 -4 -7 -10 -4 -5 3 -10 11 -10 16 0 6 5 7 10 4 6 -3 10 -11
		10 -16z m184 0 c-3 -5 -10 -7 -15 -3 -5 3 -7 10 -3 15 3 5 10 7 15 3 5 -3 7
		-10 3 -15z m-281 -4 c0 -6 -7 -11 -16 -13 -12 -3 -15 1 -11 13 7 17 25 17 27
		0z m737 -10 c0 -8 -6 -15 -14 -15 -7 0 -19 7 -26 15 -11 13 -8 15 14 15 16 0
		26 -5 26 -15z m396 -12 c-10 -10 -19 5 -10 18 6 11 8 11 12 0 2 -7 1 -15 -2
		-18z m60 19 c6 -4 8 -18 4 -32 l-6 -25 -17 33 c-17 32 -9 43 19 24z m-596 -27
		c0 -8 -4 -15 -10 -15 -5 0 -10 7 -10 15 0 8 5 15 10 15 6 0 10 -7 10 -15z
		m300 0 c0 -8 -7 -15 -15 -15 -9 0 -12 6 -9 15 4 8 10 15 15 15 5 0 9 -7 9 -15z
		m190 5 c0 -5 -7 -10 -16 -10 -8 0 -12 5 -9 10 3 6 10 10 16 10 5 0 9 -4 9 -10z
		m-105 -10 c3 -5 1 -10 -4 -10 -6 0 -11 5 -11 10 0 6 2 10 4 10 3 0 8 -4 11
		-10z m142 -30 c-13 -35 -23 -38 -30 -10 -3 13 0 20 9 20 8 0 14 5 14 10 0 6 4
		10 9 10 5 0 4 -13 -2 -30z m-1260 -16 c-9 -9 -28 6 -21 18 4 6 10 6 17 -1 6
		-6 8 -13 4 -17z m1309 -8 c7 -29 -1 -46 -23 -46 -11 0 -13 5 -8 18 4 9 7 25 7
		35 -1 26 17 21 24 -7z m-106 4 c0 -5 -4 -10 -10 -10 -5 0 -10 5 -10 10 0 6 5
		10 10 10 6 0 10 -4 10 -10z m322 -6 c7 -7 -2 -44 -11 -44 -3 0 -11 11 -18 25
		-10 22 -9 25 6 25 10 0 20 -3 23 -6z m-112 -25 c0 -5 -4 -9 -10 -9 -5 0 -10 7
		-10 16 0 8 5 12 10 9 6 -3 10 -10 10 -16z m-1354 -26 c-3 -8 -6 -20 -6 -26 0
		-16 -16 4 -24 30 -6 18 -4 20 14 16 13 -4 19 -11 16 -20z m-76 3 c0 -8 -4 -18
		-10 -21 -5 -3 -10 3 -10 14 0 12 5 21 10 21 6 0 10 -6 10 -14z m1480 7 c-1 -5
		-7 -19 -15 -33 -12 -21 -14 -23 -20 -8 -4 9 -1 24 7 32 14 16 28 21 28 9z
		m-1602 -35 c-4 -27 -28 -36 -28 -10 0 20 8 32 22 32 5 0 8 -10 6 -22z m987 1
		c268 -37 435 -130 511 -284 36 -72 36 -75 32 -172 -6 -153 -58 -244 -182 -325
		-132 -85 -289 -111 -654 -106 l-244 3 -29 33 -29 32 0 386 0 386 29 29 29 29
		231 0 c126 0 264 -5 306 -11z m505 1 c0 -5 -4 -10 -10 -10 -5 0 -10 5 -10 10
		0 6 5 10 10 10 6 0 10 -4 10 -10z m149 -12 c7 -17 5 -26 -6 -35 -22 -17 -35
		-6 -23 18 6 11 8 24 5 29 -3 6 -1 10 5 10 6 0 15 -10 19 -22z m86 -17 c3 -6
		-4 -15 -15 -21 -22 -12 -23 -10 -14 14 7 18 20 21 29 7z m-1663 -16 c0 -5 -5
		-11 -11 -13 -6 -2 -11 4 -11 13 0 9 5 15 11 13 6 -2 11 -8 11 -13z m58 -15 c0
		-11 -4 -20 -10 -20 -5 0 -10 9 -10 20 0 11 5 20 10 20 6 0 10 -9 10 -20z
		m1420 16 c0 -3 -4 -8 -10 -11 -5 -3 -10 -1 -10 4 0 6 5 11 10 11 6 0 10 -2 10
		-4z m316 -73 c13 -31 21 -59 19 -61 -5 -6 -65 89 -65 103 0 14 12 27 18 20 3
		-2 15 -30 28 -62z m-1846 21 c0 -19 -16 -18 -24 2 -11 27 -7 37 9 24 8 -7 15
		-19 15 -26z m1756 -21 c-10 -10 -19 5 -10 18 6 11 8 11 12 0 2 -7 1 -15 -2
		-18z m-71 7 c3 -5 -1 -10 -9 -10 -9 0 -16 5 -16 10 0 6 4 10 9 10 6 0 13 -4
		16 -10z m-1690 -39 c3 -6 -4 -15 -15 -21 -22 -12 -23 -10 -14 14 7 18 20 21
		29 7z m195 -12 c0 -5 -4 -9 -10 -9 -5 0 -10 7 -10 16 0 8 5 12 10 9 6 -3 10
		-10 10 -16z m-125 1 c3 -5 -1 -10 -9 -10 -9 0 -16 5 -16 10 0 6 4 10 9 10 6 0
		13 -4 16 -10z m95 -76 c11 -31 19 -58 17 -61 -8 -7 -57 77 -57 97 0 37 18 20
		40 -36z m60 46 c0 -5 -2 -10 -4 -10 -3 0 -8 5 -11 10 -3 6 -1 10 4 10 6 0 11
		-4 11 -10z m1468 -38 c2 -7 -3 -12 -12 -12 -9 0 -16 7 -16 16 0 17 22 14 28
		-4z m-1691 -18 c-9 -9 -28 6 -21 18 4 6 10 6 17 -1 6 -6 8 -13 4 -17z m83 18
		c0 -13 -12 -22 -22 -16 -10 6 -1 24 13 24 5 0 9 -4 9 -8z m1770 -32 c0 -5 -4
		-10 -10 -10 -5 0 -10 5 -10 10 0 6 5 10 10 10 6 0 10 -4 10 -10z m76 -27 c-11
		-11 -17 4 -9 23 7 18 8 18 11 1 2 -10 1 -21 -2 -24z m-182 -5 c-9 -32 -14 -35
		-24 -18 -16 24 -11 40 11 40 16 0 19 -4 13 -22z m-1609 -26 c-3 -3 -11 0 -18
		7 -9 10 -8 11 6 5 10 -3 15 -9 12 -12z m1825 3 c0 -8 -4 -15 -9 -15 -5 0 -11
		7 -15 15 -3 9 0 15 9 15 8 0 15 -7 15 -15z m-134 -32 c-10 -10 -19 5 -10 18 6
		11 8 11 12 0 2 -7 1 -15 -2 -18z m-1826 -3 c0 -5 -4 -10 -9 -10 -6 0 -13 5
		-16 10 -3 6 1 10 9 10 9 0 16 -4 16 -10z m74 -41 c-8 -14 -24 -10 -24 6 0 9 6
		12 15 9 8 -4 12 -10 9 -15z m84 -1 c-2 -6 -10 -14 -16 -16 -7 -2 -10 2 -6 12
		7 18 28 22 22 4z m53 -1 c-1 -12 -15 -9 -19 4 -3 6 1 10 8 8 6 -3 11 -8 11
		-12z m1529 3 c0 -5 -2 -10 -4 -10 -3 0 -8 5 -11 10 -3 6 -1 10 4 10 6 0 11 -4
		11 -10z m31 -13 c-13 -13 -26 -3 -16 12 3 6 11 8 17 5 6 -4 6 -10 -1 -17z
		m113 2 c-8 -14 -24 -10 -24 6 0 9 6 12 15 9 8 -4 12 -10 9 -15z m-1914 -6 c0
		-10 -4 -25 -10 -33 -7 -11 -11 -9 -19 13 -14 37 -14 37 9 37 12 0 20 -7 20
		-17z m1780 -43 c0 -4 -7 -13 -15 -20 -10 -9 -15 -9 -15 -1 0 6 -7 11 -16 11
		-8 0 -13 4 -10 9 7 10 56 12 56 1z m198 -21 c1 -30 0 -30 -18 -14 -20 18 -17
		45 5 45 7 0 12 -13 13 -31z m-1888 13 c0 -13 -12 -22 -22 -16 -10 6 -1 24 13
		24 5 0 9 -4 9 -8z m1739 -22 c-12 -34 -29 -31 -29 6 0 17 5 24 19 24 18 0 19
		-3 10 -30z m87 16 c15 -12 16 -17 7 -27 -10 -10 -14 -9 -19 4 -3 9 -12 17 -20
		17 -8 0 -14 5 -14 10 0 14 23 12 46 -4z m-1736 -6 c0 -5 -4 -10 -10 -10 -5 0
		-10 5 -10 10 0 6 5 10 10 10 6 0 10 -4 10 -10z m-132 -31 c-2 -6 -8 -10 -13
		-10 -5 0 -11 4 -13 10 -2 6 4 11 13 11 9 0 15 -5 13 -11z m-53 -9 c3 -5 1 -10
		-4 -10 -6 0 -11 5 -11 10 0 6 2 10 4 10 3 0 8 -4 11 -10z m145 -10 c0 -5 -7
		-10 -15 -10 -8 0 -15 5 -15 10 0 6 7 10 15 10 8 0 15 -4 15 -10z m1725 -37 c5
		-12 18 -25 30 -28 12 -4 15 -8 8 -11 -7 -3 -9 -12 -6 -20 3 -8 0 -14 -5 -14
		-6 0 -13 8 -17 19 -8 25 -40 61 -54 61 -6 0 -11 5 -11 11 0 19 45 5 55 -18z
		m-1865 -22 c-6 -13 -17 -17 -30 -14 -37 10 -25 22 33 32 4 0 3 -8 -3 -18z m80
		9 c0 -5 -4 -10 -10 -10 -5 0 -10 5 -10 10 0 6 5 10 10 10 6 0 10 -4 10 -10z
		m118 -7 c-1 -10 1 -24 5 -30 5 -8 3 -13 -6 -13 -15 0 -27 20 -27 46 0 8 7 14
		16 14 9 0 14 -7 12 -17z m-40 -23 c3 -17 0 -21 -12 -17 -23 9 -66 -10 -66 -28
		0 -8 7 -15 15 -15 8 0 15 -5 15 -11 0 -12 -49 -4 -63 11 -14 13 11 49 51 69
		44 24 56 22 60 -9z m1792 0 c0 -5 -4 -10 -10 -10 -5 0 -10 5 -10 10 0 6 5 10
		10 10 6 0 10 -4 10 -10z m-1760 -49 c0 -12 -20 -25 -27 -18 -7 7 6 27 18 27 5
		0 9 -4 9 -9z m-170 -14 c0 -7 -5 -18 -12 -25 -17 -17 -38 -15 -38 3 0 8 7 15
		15 15 8 0 15 5 15 10 0 6 5 10 10 10 6 0 10 -6 10 -13z m1916 -37 l4 -35 -20
		23 c-10 13 -16 30 -13 38 9 25 26 10 29 -26z m-78 -5 c-14 -30 -24 -32 -31 -5
		-3 13 0 20 9 20 8 0 14 5 14 11 0 5 4 8 10 4 6 -3 5 -15 -2 -30z m-1740 -4 c3
		-8 -1 -12 -9 -9 -7 2 -15 10 -17 17 -3 8 1 12 9 9 7 -2 15 -10 17 -17z m-108
		-11 c0 -5 -7 -10 -15 -10 -8 0 -15 5 -15 10 0 6 7 10 15 10 8 0 15 -4 15 -10z
		m161 -23 c-13 -13 -26 -3 -16 12 3 6 11 8 17 5 6 -4 6 -10 -1 -17z m49 13 c0
		-5 -7 -10 -15 -10 -8 0 -15 5 -15 10 0 6 7 10 15 10 8 0 15 -4 15 -10z m-90
		-12 c0 -16 -17 -44 -23 -38 -3 3 -8 15 -11 28 -6 18 -3 22 13 22 12 0 21 -6
		21 -12z m1620 2 c0 -5 -4 -10 -10 -10 -5 0 -10 5 -10 10 0 6 5 10 10 10 6 0
		10 -4 10 -10z m153 -24 c-3 -37 -9 -42 -28 -22 -20 20 -11 59 13 54 12 -3 16
		-13 15 -32z m-215 -5 c3 -19 0 -22 -17 -16 -24 7 -61 -10 -61 -30 0 -19 -17
		-28 -35 -18 -13 8 -13 11 1 31 17 24 83 63 99 58 6 -1 11 -13 13 -25z m-1678
		-12 c0 -5 -7 -9 -15 -9 -15 0 -20 12 -9 23 8 8 24 -1 24 -14z m1790 11 c0 -5
		-2 -10 -4 -10 -3 0 -8 5 -11 10 -3 6 -1 10 4 10 6 0 11 -4 11 -10z m-1615 -23
		c8 -13 26 -29 40 -35 16 -8 25 -20 25 -35 0 -33 -18 -47 -63 -47 -34 0 -38 2
		-35 23 2 14 9 21 21 21 24 -2 22 13 -4 27 -26 14 -37 4 -41 -41 -3 -39 -29
		-51 -62 -27 -16 12 -17 16 -5 38 8 13 14 31 14 39 1 8 6 14 12 13 6 -1 21 9
		33 22 29 31 45 31 65 2z m-128 -13 c-9 -9 -28 6 -21 18 4 6 10 6 17 -1 6 -6 8
		-13 4 -17z m1693 1 c0 -8 -4 -15 -10 -15 -5 0 -10 7 -10 15 0 8 5 15 10 15 6
		0 10 -7 10 -15z m-1723 -42 c15 -32 1 -56 -31 -51 -24 3 -33 37 -16 67 13 25
		31 19 47 -16z m1833 2 c0 -2 -13 -10 -30 -19 -34 -16 -34 -17 -20 19 8 22 13
		24 30 15 11 -6 20 -12 20 -15z m-180 7 c0 -4 -9 -13 -20 -20 -18 -11 -20 -10
		-20 8 0 13 7 20 20 20 11 0 20 -3 20 -8z m-91 -53 c12 -27 12 -33 0 -40 -31
		-19 -49 -10 -49 24 0 56 27 65 49 16z m168 -34 c-21 -20 -37 -12 -37 19 0 33
		11 39 33 17 19 -18 19 -21 4 -36z m-101 8 c-10 -10 -19 5 -10 18 6 11 8 11 12
		0 2 -7 1 -15 -2 -18z m-1396 0 c0 -3 -7 -14 -16 -24 -15 -17 -14 -22 13 -77
		15 -32 25 -63 21 -68 -44 -54 -68 -76 -68 -64 0 8 -7 2 -15 -13 -10 -20 -12
		-35 -5 -52 7 -20 6 -25 -5 -25 -8 0 -15 -5 -15 -11 0 -23 -20 4 -26 36 -3 20
		-10 38 -15 41 -5 3 -9 10 -9 15 0 6 5 7 10 4 6 -3 10 -2 10 3 0 5 12 17 26 27
		20 13 28 14 40 4 15 -12 18 -4 15 34 -3 20 15 23 22 5 3 -7 3 5 0 27 -3 22
		-14 49 -25 60 -18 19 -20 19 -33 2 -21 -28 -29 -1 -9 31 18 31 84 66 84 45z
		m1254 -25 c-9 -32 -14 -35 -24 -18 -16 24 -11 40 11 40 16 0 19 -4 13 -22z
		m-1344 3 c0 -5 -7 -11 -15 -15 -8 -3 -15 -13 -15 -21 0 -12 -6 -15 -20 -10
		-11 4 -20 2 -20 -4 0 -6 -6 -11 -12 -11 -7 0 -21 -12 -31 -26 l-19 -25 27 7
		c17 4 30 2 35 -5 4 -8 11 -2 20 18 7 17 14 31 16 31 2 0 17 -13 33 -29 21 -20
		28 -35 24 -50 -6 -24 -23 -28 -23 -6 0 8 -4 15 -9 15 -5 0 -18 3 -28 6 -16 6
		-16 5 2 -10 19 -15 19 -17 3 -29 -10 -8 -23 -27 -29 -43 -9 -23 -13 -25 -16
		-11 -3 9 -9 14 -15 11 -7 -5 -9 2 -4 19 4 16 2 27 -7 30 -6 2 -9 8 -4 12 4 5
		13 3 19 -3 7 -7 19 -12 28 -12 10 0 5 9 -15 26 -16 14 -31 20 -33 15 -5 -14
		-32 -14 -32 0 0 6 -8 8 -19 4 -13 -4 -20 0 -24 14 -6 23 6 43 24 41 33 -5 37
		-1 26 24 -9 18 -15 22 -24 14 -10 -8 -13 -6 -13 6 0 9 5 16 11 16 19 0 49 -21
		49 -34 0 -9 7 -12 20 -9 11 3 20 11 20 19 0 7 8 18 18 23 21 13 52 14 52 2z
		m1240 -31 c0 -5 -7 -10 -15 -10 -8 0 -15 5 -15 10 0 6 7 10 15 10 8 0 15 -4
		15 -10z m296 -17 c-10 -10 -19 5 -10 18 6 11 8 11 12 0 2 -7 1 -15 -2 -18z
		m-400 -21 c-8 -9 -19 -13 -22 -9 -10 9 16 38 28 31 6 -4 4 -13 -6 -22z m352
		-10 c3 -9 -3 -13 -19 -10 -12 1 -24 9 -27 16 -3 9 3 13 19 10 12 -1 24 -9 27
		-16z m-1320 -4 c-3 -7 -12 -14 -21 -16 -12 -2 -15 1 -11 12 7 19 38 22 32 4z
		m-118 -8 c0 -5 -7 -10 -15 -10 -8 0 -15 5 -15 10 0 6 7 10 15 10 8 0 15 -4 15
		-10z m154 -6 c8 -21 -2 -54 -15 -54 -6 0 -17 7 -25 15 -13 12 -13 17 3 34 23
		24 29 25 37 5z m906 -4 c0 -5 -4 -10 -10 -10 -5 0 -10 5 -10 10 0 6 5 10 10
		10 6 0 10 -4 10 -10z m-70 -22 c0 -16 -3 -19 -11 -11 -6 6 -8 16 -5 22 11 17
		16 13 16 -11z m-710 8 c0 -3 -11 -17 -24 -31 -14 -15 -22 -33 -19 -41 3 -8 0
		-14 -7 -14 -6 0 -8 -4 -5 -10 3 -5 3 -15 -1 -21 -4 -8 -11 -5 -18 9 -11 20
		-11 20 -38 -3 -24 -20 -26 -28 -18 -49 11 -30 24 -35 15 -6 -5 14 -2 20 9 20
		9 0 16 -5 16 -11 0 -5 5 -7 11 -4 6 5 4 12 -8 21 -14 10 -15 13 -3 14 35 0 42
		-15 26 -55 -13 -29 -19 -35 -29 -26 -8 6 -17 8 -21 4 -4 -4 -16 3 -26 17 -11
		14 -20 19 -20 12 0 -7 -4 -10 -10 -7 -5 3 -10 13 -10 21 0 8 4 13 9 10 5 -4 7
		3 4 14 -4 14 -11 19 -22 15 -9 -3 -26 1 -37 9 -18 14 -18 16 -2 43 20 33 41
		36 47 8 3 -21 18 -35 36 -35 6 0 4 4 -4 9 -19 12 -3 33 20 26 14 -5 19 -2 19
		13 0 13 13 23 48 34 53 18 62 20 62 14z m111 -26 c5 0 9 -4 9 -10 0 -5 -11
		-10 -25 -10 -16 0 -25 6 -25 16 0 11 5 14 16 10 9 -3 20 -6 25 -6z m-571 -10
		c0 -5 -7 -10 -15 -10 -8 0 -15 5 -15 10 0 6 7 10 15 10 8 0 15 -4 15 -10z
		m920 -6 c0 -17 -22 -14 -28 4 -2 7 3 12 12 12 9 0 16 -7 16 -16z m440 6 c0 -5
		-4 -10 -10 -10 -5 0 -10 5 -10 10 0 6 5 10 10 10 6 0 10 -4 10 -10z m-914 -27
		c-10 -10 -19 5 -10 18 6 11 8 11 12 0 2 -7 1 -15 -2 -18z m58 11 c4 -10 1 -14
		-6 -12 -15 5 -23 28 -10 28 5 0 13 -7 16 -16z m214 4 c-3 -7 -11 -13 -18 -13
		-7 0 -15 6 -17 13 -3 7 4 12 17 12 13 0 20 -5 18 -12z m413 -29 c11 -5 17 -14
		14 -19 -8 -13 -45 0 -45 16 0 17 5 17 31 3z m259 -3 c0 -8 -4 -17 -9 -21 -12
		-7 -24 12 -16 25 9 15 25 12 25 -4z m-914 -21 c-5 -18 -3 -24 6 -23 7 2 12 -5
		12 -14 -1 -11 5 -18 17 -18 23 0 25 15 4 24 -8 3 -15 15 -15 27 0 19 4 21 32
		15 43 -8 60 -25 56 -54 -3 -26 -6 -28 -71 -56 l-38 -16 -29 32 c-36 39 -36 39
		-10 68 11 13 20 27 20 32 0 4 5 8 11 8 7 0 9 -10 5 -25z m542 7 c2 -7 -3 -12
		-12 -12 -9 0 -16 7 -16 16 0 17 22 14 28 -4z m-348 -7 c0 -8 -4 -15 -10 -15
		-5 0 -10 7 -10 15 0 8 5 15 10 15 6 0 10 -7 10 -15z m277 -11 c-9 -9 -28 6
		-21 18 4 6 10 6 17 -1 6 -6 8 -13 4 -17z m299 -22 c-4 -3 -12 0 -19 7 -9 9 -9
		14 3 21 11 7 16 5 18 -6 2 -9 1 -18 -2 -22z m-1066 3 c0 -8 -4 -15 -10 -15 -5
		0 -10 7 -10 15 0 8 5 15 10 15 6 0 10 -7 10 -15z m36 -1 c-3 -9 -6 -18 -6 -20
		0 -3 -4 -3 -10 1 -11 7 -2 35 12 35 6 0 7 -7 4 -16z m663 4 c0 -7 -4 -22 -9
		-33 -7 -19 -8 -19 -18 5 -5 14 -8 28 -5 33 7 12 33 8 32 -5z m-832 -52 c-23
		-24 -37 -19 -37 12 0 39 10 46 33 23 18 -18 19 -21 4 -35z m713 28 c0 -8 -4
		-14 -10 -14 -5 0 -10 9 -10 21 0 11 5 17 10 14 6 -3 10 -13 10 -21z m-666 -10
		c11 -28 6 -39 -9 -20 -8 11 -15 23 -15 28 0 14 18 9 24 -8z m166 -5 c0 -18 -2
		-19 -15 -9 -15 12 -12 30 6 30 5 0 9 -10 9 -21z m394 12 c3 -5 -1 -14 -9 -21
		-13 -10 -15 -9 -15 9 0 21 14 28 24 12z m362 -17 c-5 -14 -9 -15 -19 -5 -9 9
		-9 14 3 21 18 11 24 6 16 -16z m-830 -11 c-10 -10 -19 5 -10 18 6 11 8 11 12
		0 2 -7 1 -15 -2 -18z m604 17 c0 -5 -2 -10 -4 -10 -3 0 -8 5 -11 10 -3 6 -1
		10 4 10 6 0 11 -4 11 -10z m-830 -16 c0 -8 -4 -12 -10 -9 -5 3 -10 10 -10 16
		0 5 5 9 10 9 6 0 10 -7 10 -16z m270 1 c14 -16 10 -18 -14 -9 -9 3 -16 10 -16
		15 0 14 16 11 30 -6z"/>
		
		<path d="M3632 4807 c18 -18 58 -23 58 -7 0 6 -6 10 -12 10 -7 0 -24 3 -38 7
		-23 6 -24 6 -8 -10z"/>
		<path d="M3785 4800 c-3 -5 -1 -10 4 -10 6 0 11 5 11 10 0 6 -2 10 -4 10 -3 0
		-8 -4 -11 -10z"/>
		<path d="M3450 4829 c0 -5 5 -7 10 -4 6 3 10 8 10 11 0 2 -4 4 -10 4 -5 0 -10
		-5 -10 -11z"/>
		<path d="M2708 2173 c7 -3 16 -2 19 1 4 3 -2 6 -13 5 -11 0 -14 -3 -6 -6z"/>
		</g>
</g>
</g>
</svg>
